<?xml version="1.0" encoding="UTF-8" standalone="no"?>
<!-- Created with Inkscape (http://www.inkscape.org/) -->

<svg
   width="16.951mm"
   height="16.951mm"
   viewBox="0 0 16.951 16.951"
   version="1.1"
   id="svg1"
   xml:space="preserve"
   xmlns="http://www.w3.org/2000/svg"
   xmlns:svg="http://www.w3.org/2000/svg"><defs
     id="defs1" /><g
     id="layer1"
     transform="translate(-221.03466,-137.01447)"><g
       id="g1276"
       transform="matrix(0.64657149,0,0,0.64657149,171.50266,117.7116)"
       style="fill:#ffffff;fill-opacity:1"><path
         id="path1266"
         style="fill:#ffffff;fill-opacity:1;stroke:none;stroke-width:0.189016;stroke-linejoin:round;stroke-dasharray:none"
         d="m 94.41301,34.827172 a 9.3947114,9.3947114 0 0 0 -5.847208,-1.187957 l 1.021409,1.638415 2.07e-4,1.12e-4 a 7.6868276,7.6868276 0 0 1 3.971626,1.028546 z m 0.56323,0.352417 -0.165687,0.714837 -0.254456,1.097537 a 7.6868276,7.6868276 0 0 1 2.584169,3.98166 7.6868276,7.6868276 0 0 1 1.97e-4,1.23e-4 l 1.649546,-0.442168 A 9.3947114,9.3947114 0 0 0 94.97624,35.179589 Z m -7.691453,-1.291086 a 9.3947114,9.3947114 0 0 0 -6.48e-4,1.73e-4 9.3947114,9.3947114 0 0 0 -5.3521,3.813963 l 0.714316,0.165659 1.097937,0.254689 a 7.6868276,7.6868276 0 0 1 3.981895,-2.584572 7.6868276,7.6868276 0 0 1 6.47e-4,-1.73e-4 z m 11.754653,7.923377 -1.638325,1.021718 a 7.6868276,7.6868276 0 0 1 -1.028843,3.973071 l 1.479313,0.854078 A 9.3947114,9.3947114 0 0 0 99.03944,41.81188 Z M 81.579521,38.266064 a 9.3947114,9.3947114 0 0 0 -1.187927,5.846692 l 1.638528,-1.021606 a 7.6868276,7.6868276 0 0 1 1.028715,-3.970997 z m 15.91941,9.958309 -0.714308,-0.165652 -1.098251,-0.254602 a 7.6868276,7.6868276 0 0 1 -3.981231,2.583885 7.6868276,7.6868276 0 0 1 -6.54e-4,1.7e-4 l 0.442048,1.649749 a 9.3947114,9.3947114 0 0 0 6.53e-4,-1.81e-4 9.3947114,9.3947114 0 0 0 5.351743,-3.813369 z m -15.208393,-3.272966 -1.649744,0.442048 a 9.3947114,9.3947114 0 0 0 3.34e-4,8.6e-4 9.3947114,9.3947114 0 0 0 3.813768,5.351988 l 0.165543,-0.714115 0.2546,-1.098258 a 7.6868276,7.6868276 0 0 1 -2.584166,-3.981661 7.6868276,7.6868276 0 0 1 -3.35e-4,-8.62e-4 z m 7.554105,5.697414 a 7.6868276,7.6868276 0 0 1 -3.972345,-1.028692 l -0.853854,1.478909 a 9.3947114,9.3947114 0 0 0 5.84772,1.187991 z" /><path
         id="path1267"
         style="fill:#ffffff;fill-opacity:1;stroke:none;stroke-width:0.108564;stroke-linejoin:round;stroke-dasharray:none"
         d="m 102.82388,39.449523 -3.568532,-0.121252 -2.818973,-0.09574 a 7.6868276,7.6868276 0 0 1 0.704088,1.741208 l 5.679327,-1.521771 z" /><path
         id="path1268"
         style="fill:#ffffff;fill-opacity:1;stroke:none;stroke-width:0.108564;stroke-linejoin:round;stroke-dasharray:none"
         d="m 82.290338,44.951294 -5.679009,1.521688 -0.0042,0.0025 3.568533,0.121251 2.81845,0.09572 a 7.6868276,7.6868276 0 0 1 -0.703234,-1.739929 7.6868276,7.6868276 0 0 1 -5.35e-4,-0.0017 z" /><path
         id="path1269"
         style="fill:#ffffff;fill-opacity:1;stroke:none;stroke-width:0.108564;stroke-linejoin:round;stroke-dasharray:none"
         d="m 93.44537,49.68468 a 7.6868276,7.6868276 0 0 1 -1.740229,0.703324 7.6868276,7.6868276 0 0 1 -7.39e-4,3.59e-4 l 1.521523,5.678383 0.0025,0.0042 0.121165,-3.568846 z" /><path
         id="path1270"
         style="fill:#ffffff;fill-opacity:1;stroke:none;stroke-width:0.108564;stroke-linejoin:round;stroke-dasharray:none"
         d="m 86.202447,29.854201 -0.121252,3.568528 -0.09577,2.819489 a 7.6868276,7.6868276 0 0 1 1.740781,-0.703804 7.6868276,7.6868276 0 0 1 6.49e-4,-1.72e-4 l 1.16e-4,-2.07e-4 -1.522056,-5.679759 z" /><path
         id="path1271"
         style="fill:#ffffff;fill-opacity:1;stroke:none;stroke-width:0.0914631;stroke-linejoin:round;stroke-dasharray:none"
         d="m 95.488118,32.962725 -2.198141,2.053791 -0.822957,0.769052 a 7.6868276,7.6868276 0 0 1 1.092024,0.520719 l 1.928102,-3.339571 z" /><path
         id="path1272"
         style="fill:#ffffff;fill-opacity:1;stroke:none;stroke-width:0.0914631;stroke-linejoin:round;stroke-dasharray:none"
         d="m 86.964833,50.140875 a 7.6868276,7.6868276 0 0 1 -1.092535,-0.520746 l -1.928451,3.340173 -9.47e-4,0.0042 2.198136,-2.053791 z" /><path
         id="path1273"
         style="fill:#ffffff;fill-opacity:1;stroke:none;stroke-width:0.0914631;stroke-linejoin:round;stroke-dasharray:none"
         d="m 96.893309,45.71456 a 7.6868276,7.6868276 0 0 1 -0.520839,1.09222 l 3.339777,1.928215 0.0042,8.59e-4 -2.053576,-2.19802 z" /><path
         id="path1274"
         style="fill:#ffffff;fill-opacity:1;stroke:none;stroke-width:0.0914631;stroke-linejoin:round;stroke-dasharray:none"
         d="m 79.71886,37.191818 -0.004,-8.6e-4 2.053473,2.198219 0.769533,0.823498 a 7.6868276,7.6868276 0 0 1 0.520753,-1.09254 z" /><path
         id="path1275"
         style="fill:#ffffff;fill-opacity:1;stroke:none;stroke-width:0.0494227;stroke-linejoin:round;stroke-dasharray:none"
         d="m 95.542429,41.589596 c -0.0083,-0.01143 -5.31415,1.426206 -4.840253,1.684474 0.473916,0.258277 2.088353,0.372534 2.176549,0.611066 0.05693,0.154021 -0.293948,0.336685 -2.510409,1.050893 -0.788967,0.254231 -1.865894,0.637312 -1.806606,1.200682 0.0584,0.554719 1.231668,0.850769 1.899078,1.044392 1.447821,0.420035 3.014854,0.225285 3.047282,0.219599 a 6.0679957,6.0697685 80.378435 0 0 2.064505,-5.647066 6.0679957,6.0697685 80.378435 0 0 -0.03016,-0.164068 z" /><path
         id="path1276"
         style="fill:#ffffff;fill-opacity:1;stroke:none;stroke-width:0.0494227;stroke-linejoin:round;stroke-dasharray:none"
         d="m 88.573991,36.785506 a 6.0679957,6.0697685 80.378435 0 0 -4.970194,6.997157 6.0679957,6.0697685 80.378435 0 0 1.160741,2.669219 c 0,0 -0.215422,-0.790739 -0.01851,-1.100279 0.266837,-0.419468 0.671588,-0.769102 1.291016,-1.018894 1.165324,-0.46993 2.678656,-0.650773 2.760475,-0.919236 0,0 -0.399001,-0.130153 -0.577819,-0.236653 -0.307672,-0.183268 -0.743689,-0.372968 0.482866,-0.573806 0.928161,-0.152025 2.24963,-0.461091 3.50994,-0.708177 1.22042,-0.239275 2.412581,-0.464686 3.258479,-0.621553 a 6.0679957,6.0697685 80.378435 0 0 -6.896996,-4.487787 z" /></g></g><style
     id="style1">
    #MT-510010 {fill:#ffffb2}
    #MT-510020 {fill:#fed976}
    #MT-510025 {fill:#feb24c}
    #MT-510030 {fill:#ffffb2}
    #MT-510035 {fill:#ffffb2}
    #MT-510040 {fill:#ffffb2}
    #MT-510050 {fill:#ffffb2}
    #MT-510060 {fill:#ffffb2}
    #MT-510080 {fill:#ffffb2}
    #MT-510100 {fill:#ffffb2}
    #MT-510120 {fill:#ffffb2}
    #MT-510125 {fill:#fed976}
    #MT-510130 {fill:#ffffb2}
    #MT-510140 {fill:#fed976}
    #MT-510160 {fill:#ffffb2}
    #MT-510170 {fill:#fed976}
    #MT-510180 {fill:#feb24c}
    #MT-510185 {fill:#ffffb2}
    #MT-510190 {fill:#ffffb2}
    #MT-510250 {fill:#feb24c}
    #MT-510260 {fill:#ffffb2}
    #MT-510263 {fill:#feb24c}
    #MT-510267 {fill:#feb24c}
    #MT-510268 {fill:#ffffb2}
    #MT-510269 {fill:#ffffb2}
    #MT-510270 {fill:#fed976}
    #MT-510279 {fill:#ffffb2}
    #MT-510285 {fill:#ffffb2}
    #MT-510300 {fill:#ffffb2}
    #MT-510305 {fill:#ffffb2}
    #MT-510310 {fill:#ffffb2}
    #MT-510320 {fill:#feb24c}
    #MT-510325 {fill:#ffffb2}
    #MT-510330 {fill:#ffffb2}
    #MT-510335 {fill:#fed976}
    #MT-510336 {fill:#ffffb2}
    #MT-510337 {fill:#ffffb2}
    #MT-510340 {fill:#b10026}
    #MT-510343 {fill:#ffffb2}
    #MT-510345 {fill:#ffffb2}
    #MT-510350 {fill:#fed976}
    #MT-510360 {fill:#ffffb2}
    #MT-510370 {fill:#ffffb2}
    #MT-510380 {fill:#ffffb2}
    #MT-510385 {fill:#ffffb2}
    #MT-510390 {fill:#ffffb2}
    #MT-510395 {fill:#ffffb2}
    #MT-510410 {fill:#fed976}
    #MT-510420 {fill:#ffffb2}
    #MT-510450 {fill:#ffffb2}
    #MT-510452 {fill:#ffffb2}
    #MT-510454 {fill:#ffffb2}
    #MT-510455 {fill:#ffffb2}
    #MT-510460 {fill:#ffffb2}
    #MT-510480 {fill:#fed976}
    #MT-510490 {fill:#ffffb2}
    #MT-510500 {fill:#ffffb2}
    #MT-510510 {fill:#fed976}
    #MT-510515 {fill:#fed976}
    #MT-510517 {fill:#ffffb2}
    #MT-510520 {fill:#ffffb2}
    #MT-510523 {fill:#ffffb2}
    #MT-510525 {fill:#fd8d3c}
    #MT-510530 {fill:#ffffb2}
    #MT-510550 {fill:#fed976}
    #MT-510558 {fill:#ffffb2}
    #MT-510560 {fill:#fed976}
    #MT-510562 {fill:#fed976}
    #MT-510590 {fill:#ffffb2}
    #MT-510600 {fill:#ffffb2}
    #MT-510610 {fill:#ffffb2}
    #MT-510615 {fill:#ffffb2}
    #MT-510617 {fill:#ffffb2}
    #MT-510618 {fill:#ffffb2}
    #MT-510619 {fill:#ffffb2}
    #MT-510620 {fill:#ffffb2}
    #MT-510621 {fill:#ffffb2}
    #MT-510622 {fill:#feb24c}
    #MT-510623 {fill:#ffffb2}
    #MT-510624 {fill:#ffffb2}
    #MT-510625 {fill:#fed976}
    #MT-510626 {fill:#ffffb2}
    #MT-510627 {fill:#ffffb2}
    #MT-510628 {fill:#ffffb2}
    #MT-510629 {fill:#fed976}
    #MT-510630 {fill:#fed976}
    #MT-510631 {fill:#ffffb2}
    #MT-510637 {fill:#fed976}
    #MT-510642 {fill:#fed976}
    #MT-510645 {fill:#ffffb2}
    #MT-510650 {fill:#fed976}
    #MT-510665 {fill:#ffffb2}
    #MT-510670 {fill:#ffffb2}
    #MT-510675 {fill:#fed976}
    #MT-510677 {fill:#ffffb2}
    #MT-510680 {fill:#ffffb2}
    #MT-510682 {fill:#ffffb2}
    #MT-510685 {fill:#ffffb2}
    #MT-510700 {fill:#ffffb2}
    #MT-510704 {fill:#fd8d3c}
    #MT-510706 {fill:#fed976}
    #MT-510710 {fill:#fed976}
    #MT-510715 {fill:#ffffb2}
    #MT-510718 {fill:#ffffb2}
    #MT-510719 {fill:#ffffb2}
    #MT-510720 {fill:#ffffb2}
    #MT-510724 {fill:#ffffb2}
    #MT-510726 {fill:#ffffb2}
    #MT-510729 {fill:#ffffb2}
    #MT-510730 {fill:#fed976}
    #MT-510735 {fill:#ffffb2}
    #MT-510740 {fill:#ffffb2}
    #MT-510757 {fill:#ffffb2}
    #MT-510760 {fill:#e31a1c}
    #MT-510770 {fill:#ffffb2}
    #MT-510774 {fill:#ffffb2}
    #MT-510775 {fill:#ffffb2}
    #MT-510776 {fill:#ffffb2}
    #MT-510777 {fill:#ffffb2}
    #MT-510779 {fill:#ffffb2}
    #MT-510780 {fill:#ffffb2}
    #MT-510785 {fill:#ffffb2}
    #MT-510787 {fill:#fed976}
    #MT-510788 {fill:#ffffb2}
    #MT-510790 {fill:#fc4e2a}
    #MT-510792 {fill:#fd8d3c}
    #MT-510794 {fill:#ffffb2}
    #MT-510795 {fill:#fd8d3c}
    #MT-510800 {fill:#fed976}
    #MT-510805 {fill:#ffffb2}
    #MT-510810 {fill:#ffffb2}
    #MT-510820 {fill:#ffffb2}
    #MT-510830 {fill:#ffffb2}
    #MT-510835 {fill:#ffffb2}
    #MT-510840 {fill:#fc4e2a}
    #MT-510850 {fill:#ffffb2}
    #MT-510860 {fill:#ffffb2}
    #MT-510880 {fill:#ffffb2}
    #MT-510885 {fill:#ffffb2}
    #MT-510890 {fill:#ffffb2}
    #MT-510895 {fill:#ffffb2}
</style></svg>
