<svg width="155" height="155" viewBox="0 0 155 155" fill="none" xmlns="http://www.w3.org/2000/svg">
<path d="M111.117 18.8367C104.649 20.5968 104.555 25.2443 97.5098 26.0163C92.9743 26.5127 86.6338 30.4839 86.6562 37.2467C100.293 28.2806 95.0054 40.9246 114.448 32.0341C120.489 30.8151 121.73 38.4418 134.329 39.5936C135.642 40.6242 135.149 40.0568 136.556 43.9037C146.221 40.6011 140.775 27.4986 137.636 26.8215C136.057 26.4749 134.53 29.2657 129.679 26.1144C123.747 22.2451 116.639 17.3336 111.117 18.8367Z" fill="#D78E43"/>
<path d="M135.3 68.58C126.229 66.0678 124.333 79.6529 133.518 80.0211C140.573 79.4274 141.724 70.371 135.3 68.58ZM135.601 77.3963C132.011 79.7941 127.056 75.0417 130.223 71.597C134.105 67.3239 141.123 73.7107 135.601 77.3963Z" fill="#D78E43"/>
<path d="M142.559 80.9009C136.038 84.9478 142.514 97.4041 149.389 92.0178C149.589 91.867 149.723 91.6442 149.761 91.3965C149.8 91.1489 149.74 90.8959 149.596 90.6914C149.451 90.4869 149.232 90.3468 148.985 90.301C148.739 90.2552 148.484 90.3072 148.276 90.446C142.886 94.2868 139.622 84.9131 143.59 82.5252C145.696 81.2576 147.17 81.4197 148.487 83.21C153.12 84.8127 147.576 76.8139 142.559 80.9009Z" fill="#D78E43"/>
<path d="M132.622 99.9242C139.129 96.5544 132.713 87.0618 126.049 90.1197C117.865 94.0345 125.078 104.445 132.622 99.9242ZM126.763 91.9131C130.712 90.0325 136.248 95.1933 131.81 98.1794C126.823 101.421 120.919 95.1022 126.764 91.9131H126.763Z" fill="#D78E43"/>
<path d="M14.9772 37.2873C12.5547 43.2225 14.7958 71.2942 18.1734 74.6038C22.739 79.0868 50.0217 51.4359 52.4435 45.3656C54.8653 39.2953 52.2783 18.4001 50.8038 15.0905C48.6476 10.267 17.4021 31.3544 14.9772 37.2873ZM21.0761 49.8494C19.6996 46.8177 20.2338 42.6134 20.5573 41.7479C21.0838 40.3267 24.1603 38.3403 27.1842 38.0022C29.1698 37.776 29.2223 44.7495 28.7035 46.6069C28.3237 47.9626 22.0133 51.9045 21.08 49.8509L21.0761 49.8494ZM31.3924 61.3067C31.3533 61.8883 31.198 62.4562 30.9357 62.9767C30.6734 63.4973 30.3095 63.96 29.8654 64.3376C27.6096 66.2677 25.5422 67.5724 24.5332 67.2342C23.6067 66.9254 22.0581 63.947 22.607 59.2532C22.6677 58.7023 22.8488 58.1715 23.1374 57.6983C23.4259 57.2251 23.8149 56.8211 24.2768 56.5149C26.9395 54.7624 28.482 53.9881 29.3242 53.9881C30.5656 53.9804 31.6858 57.0113 31.3924 61.3067ZM38.3884 38.8413C36.7031 36.4049 36.7409 31.5845 37.516 30.3191C38.3359 28.9805 41.1491 26.0322 44.1946 25.6933C46.181 25.4678 46.2335 32.4406 45.7147 34.2981C45.331 35.6491 39.6668 40.6887 38.3884 38.8382V38.8413ZM46.3686 50.3095C44.2626 52.5962 42.104 53.2879 41.4347 53.1072C40.7878 52.9343 39.6969 50.3319 39.5919 46.3005C39.63 45.8127 39.7658 45.3375 39.9913 44.9033C40.2167 44.4691 40.5273 44.0847 40.9043 43.7729C42.1018 42.6609 43.4126 41.6777 44.8153 40.8393C46.5608 39.9669 47.4402 41.9201 47.8771 46.1422C47.9637 46.9061 47.8725 47.6796 47.6109 48.4025C47.3492 49.1254 46.9241 49.778 46.3686 50.3095Z" fill="#D78E43"/>
<path d="M97.6225 82.1126C103.054 82.4986 106.853 74.7106 100.865 71.9807C93.2375 68.4071 88.8131 81.4911 97.6225 82.1126ZM95.9526 74.2142C99.9547 71.2581 104.438 76.5232 100.556 79.1334C96.4722 82.4661 92.4091 77.2157 95.9526 74.2142Z" fill="#D78E43"/>
<path d="M84.129 89.883C85.3928 90.3045 85.453 88.5814 86.1903 88.0178C90.1275 84.9298 96.2171 92.0492 91.4778 94.7343C91.0376 95.0302 90.5595 95.2655 90.0565 95.4337C89.8213 95.5191 89.6286 95.6927 89.5192 95.9178C89.4098 96.1429 89.3924 96.4017 89.4706 96.6394C89.5488 96.8771 89.7165 97.0751 89.9381 97.1912C90.1597 97.3074 90.4179 97.3327 90.6579 97.2618C97.0818 95.4337 95.7879 88.1305 90.1314 85.6477C87.424 84.4573 81.9026 87.3029 84.129 89.883Z" fill="#D78E43"/>
<path d="M97.2924 59.5214C101.948 56.2875 99.8647 53.858 95.7051 56.3562C92.5986 58.209 94.2082 61.6676 97.2924 59.5214Z" fill="#D78E43"/>
<path d="M120.129 47.4781C116 50.0203 117.196 52.9841 122.214 50.3438C125.529 48.5952 123.206 45.5712 120.129 47.4781Z" fill="#D78E43"/>
<path d="M141.13 59.0579C139.655 52.8455 134.985 68.4532 143.559 68.3328C144.598 68.2355 148.114 67.9645 147.561 66.0685C147.504 65.9557 147.425 65.8554 147.329 65.7734C147.233 65.6914 147.121 65.6293 147.001 65.5908C146.88 65.5523 146.754 65.5381 146.628 65.5491C146.502 65.56 146.379 65.5959 146.267 65.6547C141.889 68.437 138.738 63.3039 141.13 59.0579Z" fill="#D78E43"/>
<path d="M51.6108 28.8951C50.9639 27.6692 49.934 28.5184 48.9404 29.4664C47.9469 30.4144 47.6172 31.6404 48.7227 31.7987C49.3017 31.8357 49.6854 31.347 50.1517 30.9564C50.889 30.3318 52.1751 29.9628 51.6108 28.8951Z" fill="#6C6753"/>
<path d="M51.4932 26.074C51.606 26.0201 51.7063 25.9433 51.7879 25.8487C51.8695 25.754 51.9306 25.6434 51.9673 25.5239C52.0041 25.4044 52.0156 25.2786 52.0012 25.1545C51.9868 25.0303 51.9469 24.9104 51.8838 24.8025C51.0269 23.3658 49.7222 25.0588 48.883 25.5544C47.9504 26.0948 46.4983 27.3903 47.4162 28.1353C48.0686 28.6695 49.9646 26.819 51.4932 26.074Z" fill="#6C6753"/>
<path d="M50.8969 42.8031C49.9265 43.6006 48.7307 44.5332 49.5428 45.7066C50.1072 46.5265 51.3254 44.8713 52.0851 44.3224C53.101 43.5929 51.8751 42.0211 50.8969 42.8031Z" fill="#6C6753"/>
<path d="M22.6442 75.7489C21.1998 75.779 21.4407 77.2929 22.8851 77.1702C30.5195 76.5688 54.3413 52.8048 56.7183 46.8419C59.3207 40.3053 56.5106 19.0635 55.0639 15.8257C54.5667 14.697 53.025 14.9904 53.4234 16.1862C54.8385 20.4516 57.1923 40.4674 54.9357 46.1316C52.5965 51.9942 29.1044 75.5984 22.6442 75.7489Z" fill="#6C6753"/>
<path d="M89.996 142.596C90.5071 141.724 90.3195 141.295 89.8532 141.052C89.5865 140.969 89.299 140.985 89.0424 141.095C88.7858 141.205 88.577 141.403 88.4536 141.654C87.1149 144.286 86.3969 145.739 86.3174 145.977C86.2737 146.12 86.2639 146.272 86.2888 146.419C86.3138 146.567 86.3727 146.707 86.4609 146.828C86.5492 146.949 86.6644 147.048 86.7975 147.117C86.9305 147.186 87.0778 147.223 87.2276 147.225C88.0861 147.238 88.7099 144.823 89.996 142.596Z" fill="#6C6753"/>
<path d="M96.4794 145.982C98.2103 145.839 102.896 133.209 103.453 131.622C108.282 131.878 117.805 132.051 123.025 131.683C123.401 131.908 128.982 145.936 129.973 145.982C130.963 146.027 131.312 145.665 130.852 144.628L125.062 131.532C126.942 131.391 128.81 131.119 130.652 130.719C131.102 131.156 134.691 139.474 135.555 139.617C136.42 139.76 136.895 139.219 136.421 138.242C135.947 137.264 132.524 130.162 132.524 130.162C141.189 125.574 144.027 107.281 144.04 107.079C144.22 105.86 142.295 105.974 142.122 107.222C139.61 118.919 136.857 125.673 132.043 128.118C126.808 130.781 115.908 130.021 102.926 129.683C101.481 129.645 98.5855 129.239 98.4874 130.378C98.3901 131.544 99.3675 131.258 101.399 131.521L95.5986 144.632C95.5333 144.779 95.5057 144.939 95.5184 145.099C95.5311 145.259 95.5837 145.413 95.6713 145.547C95.7589 145.681 95.8788 145.791 96.02 145.867C96.1612 145.943 96.3191 145.983 96.4794 145.982Z" fill="#6C6753"/>
<path d="M66.181 91.1536C67.437 89.341 70.3931 86.8304 68.9039 85.4524C68.8022 85.3745 68.6855 85.3187 68.5611 85.2886C68.4367 85.2584 68.3073 85.2546 68.1813 85.2772C68.0554 85.2999 67.9355 85.3486 67.8294 85.4202C67.7233 85.4919 67.6333 85.5848 67.5652 85.6932C60.6604 95.5162 49.4145 114.171 41.8103 117.736C36.1159 119.271 13.5278 114.961 11.7792 114.803C10.8528 114.72 10.1541 116.014 12.23 116.691C18.0595 118.579 36.1121 120.505 41.3772 119.76C41.8833 121.963 42.0233 124.235 41.7917 126.485C38.5339 127.019 30.5011 126.627 20.6017 125.115C19.3665 124.913 19.737 126.718 20.9784 126.883C26.0335 127.702 31.1276 128.259 36.2402 128.553C36.2703 132.931 36.2325 144.891 36.2325 145.026C36.2773 146.929 38.1579 145.071 38.1579 144.537C38.1579 144.41 38.1957 133.051 38.1656 128.598C40.0181 128.723 41.8748 128.427 43.5967 127.733C49.5767 124.972 57.3237 114.772 63.7932 104.032C65.4399 101.309 63.8904 100.399 63.3415 101.37C57.3538 111.915 49.0594 122.291 43.8098 125.703C43.9219 123.539 43.7349 121.369 43.2539 119.256C49.5504 115.984 56.0569 105.814 66.181 91.1536Z" fill="#6C6753"/>
<path d="M111.117 34.4984C112.275 34.5895 112.682 32.573 115.743 33.0848C115.992 33.1422 116.252 33.0993 116.469 32.9654C116.686 32.8316 116.841 32.6176 116.901 32.3699C116.609 28.6844 106.846 34.1602 111.117 34.4984Z" fill="#6C6753"/>
<path d="M50.6788 38.6001C49.6752 39.4131 47.3314 41.1956 48.8815 42.0456C49.8967 42.6022 51.0702 40.842 52.3486 39.9396C53.3569 39.2 51.995 37.5193 50.6788 38.6001Z" fill="#6C6753"/>
<path d="M110.727 41.359C110.606 44.796 112.313 49.3393 115.698 47.8346C118.699 45.9918 120.497 45.0971 123.22 44.6601C123.611 44.5862 123.971 44.3982 124.255 44.1198C124.539 43.8414 124.734 43.4852 124.815 43.096C126.3 33.2275 111.864 30.2413 110.727 41.359ZM114.758 37.2064C115.59 39.6853 116.679 42.0702 118.008 44.322C116.782 44.708 115.593 46.0822 114.254 46.1748C112.327 44.6007 111.674 39.4784 114.758 37.2102V37.2064Z" fill="#6C6753"/>
<path d="M114.676 50.5728C114.303 50.5263 113.924 50.572 113.573 50.7058C113.221 50.8395 112.908 51.0574 112.66 51.3402C110.922 52.9267 108.899 53.4609 106.108 54.1966C102.152 54.7309 102.806 58.8233 105.77 59.613C107.123 65.3259 116.556 61.1848 117.331 57.0924C117.978 54.8119 117.444 51.2198 114.676 50.5728ZM111.072 60.3511C109.771 60.7201 107.973 60.8328 107.675 59.5389C108.765 59.0873 107.953 57.5008 106.923 57.7865C105.651 58.14 103.884 56.6578 106.073 56.1992C109.128 55.4998 111.723 54.6043 113.964 52.8518C114.099 52.7465 114.268 52.6959 114.438 52.7102C114.608 52.7245 114.767 52.8027 114.882 52.929C117.268 55.665 114.119 59.4864 111.072 60.3511Z" fill="#6C6753"/>
<path d="M43.3299 48.7981C42.9084 49.0459 42.4421 47.6316 42.0515 46.9553C41.9201 46.7405 41.7097 46.5857 41.4656 46.5242C41.2214 46.4627 40.9629 46.4992 40.7453 46.6261C40.5278 46.7529 40.3687 46.9599 40.302 47.2027C40.2353 47.4455 40.2664 47.7048 40.3886 47.9249C42.1186 50.8817 43.6611 51.3218 44.1421 51.1372C45.6467 50.5428 45.6915 45.849 46.4666 43.2388C46.621 42.7278 45.8119 42.1711 45.2785 42.1711C43.7584 42.1634 43.7437 48.5418 43.3299 48.7981Z" fill="#6C6753"/>
<path d="M23.6898 61.367C25.7889 64.8642 27.722 65.5412 28.1729 62.9619C29.2792 56.7257 30.2643 55.763 29.0221 55.5368C27.0743 55.3345 27.2017 61.2767 26.6227 62.2394C26.1501 61.6602 25.7249 61.0439 25.3512 60.3966C25.2176 60.1864 25.0077 60.0363 24.7657 59.9776C24.5237 59.9189 24.2683 59.9563 24.0533 60.0819C23.8383 60.2075 23.6803 60.4115 23.6125 60.6512C23.5447 60.8908 23.5725 61.1474 23.6898 61.367Z" fill="#6C6753"/>
<path d="M8.94682 81.3452C9.73658 83.4512 10.3912 83.9098 11.4064 84.4332C13.1512 85.3364 19.1767 86.8179 22.0879 85.0276C32.8891 80.2412 57.7114 55.828 60.3795 49.1409C63.2753 41.8524 60.5902 14.7279 56.5279 10.3576C54.1818 7.85316 47.8043 6.42031 44.1249 7.56752C37.4856 9.63573 7.74866 26.0332 4.70232 35.7218C2.38784 40.1478 5.17865 71.3037 8.94682 81.3452ZM6.54047 36.3039C7.85288 31.7653 22.2122 20.6654 34.3489 14.0161C44.5032 8.45764 47.3766 8.04385 50.7016 9.55621C48.7453 10.3159 45.6164 11.2708 46.1058 12.4821C46.164 12.5962 46.245 12.6971 46.3439 12.7785C46.4427 12.8599 46.5572 12.9202 46.6803 12.9554C46.8034 12.9907 46.9325 13.0002 47.0594 12.9835C47.1864 12.9667 47.3085 12.9241 47.4183 12.8581C49.7945 11.5341 53.9618 10.4209 55.1283 11.6769C58.3476 15.1602 61.4086 41.366 58.5954 48.4291C56.5982 54.6422 27.895 81.8323 20.5532 83.6017C18.4919 83.9476 17.3941 81.1313 16.7626 79.1866C16.3187 77.8171 16.2886 77.1177 15.5359 77.1933C14.3702 77.306 15.1298 81.9087 17.161 83.8874C15.4577 83.7362 13.7868 83.3305 12.2039 82.6838C7.96173 80.7584 4.4244 43.6017 6.54047 36.3039Z" fill="#6C6753"/>
<path d="M33.95 50.8207C33.2954 51.2353 31.1445 52.0019 31.7459 53.5366C32.3026 54.9509 33.9076 53.522 35.3944 52.604C37.177 51.5055 38.4107 51.2198 37.6209 49.8734C37.1168 48.9702 36.1842 49.4079 33.95 50.8207Z" fill="#6C6753"/>
<path d="M150.375 78.0203C149.103 62.2551 143.063 58.6367 136.602 55.0145C137.586 51.6513 137.777 48.1057 137.158 44.6565C145.997 40.4513 147.343 19.9322 137.853 16.4643C137.317 16.4724 136.791 16.6109 136.32 16.8678C135.849 17.1247 135.448 17.4923 135.151 17.9388C132.766 21.7672 122.815 11.0788 116.692 11.5072C111.288 10.8835 103.228 10.9807 95.5934 18.9764C94.9912 19.6079 93.3746 20.3305 91.5087 21.1581C79.504 25.1725 69.447 38.4657 82.6105 50.0196C82.8014 50.7567 83.0452 51.4792 83.3401 52.1812C81.9677 52.285 80.6065 52.504 79.2708 52.8359C77.0745 47.6758 70.3426 50.2334 69.823 55.4237C58.6752 59.9214 60.8268 82.5983 74.005 81.7051C85.7317 82.42 88.9966 59.7183 78.2101 58.0408C77.9643 58.0019 77.713 58.0598 77.5088 58.2021C77.3047 58.3444 77.1635 58.5602 77.1149 58.8043C77.0663 59.0484 77.114 59.3018 77.2481 59.5115C77.3822 59.7211 77.5922 59.8708 77.8341 59.9291C80.3045 60.2224 83.1216 63.0279 82.775 67.3079C81.1414 67.1704 79.5217 66.9013 77.9314 66.5035C77.6877 66.4446 77.4307 66.483 77.2149 66.6107C76.9991 66.7383 76.8417 66.9451 76.776 67.1871C76.7104 67.429 76.7417 67.687 76.8633 67.9062C76.9849 68.1255 77.1872 68.2886 77.4273 68.361C79.1619 68.8009 80.9307 69.0929 82.7147 69.2341C82.602 70.7209 82.2987 72.1872 81.8123 73.5967C79.9288 73.3628 78.0756 72.929 76.2839 72.3028C76.0485 72.2346 75.796 72.2588 75.5777 72.3704C75.3595 72.482 75.1921 72.6726 75.1096 72.9034C75.0271 73.1342 75.0357 73.3878 75.1337 73.6124C75.2317 73.8371 75.4117 74.0159 75.637 74.1124C77.3829 74.7174 79.1807 75.1606 81.0078 75.4364C79.2924 78.756 76.1311 80.4282 72.0788 79.596C60.9163 77.3023 63.2007 59.4898 70.9578 57.0534C71.1336 56.9999 71.2902 56.8971 71.409 56.757C71.5279 56.617 71.6039 56.4457 71.6279 56.2636C71.8379 54.6918 72.8763 52.111 74.7492 51.9164C76.5472 51.762 77.0359 52.7363 77.4867 53.7059C77.6522 54.0634 77.9257 54.3599 78.2686 54.5538C78.6115 54.7477 79.0066 54.8292 79.3982 54.7867C81.0148 54.5991 82.7001 53.929 84.0989 54.0649C87.187 61.6923 88.6646 64.6931 91.9371 66.9127C84.5799 75.3445 81.8238 87.4481 84.2943 92.961C70.7069 98.5873 72.1738 106.019 66.3775 117.407C61.1047 119.611 57.4415 119.438 56.9822 124.598C56.9234 125.265 57.0103 125.936 57.237 126.566C57.4636 127.196 57.8245 127.77 58.2946 128.246C59.8888 129.555 82.5974 138.958 89.8489 138.958C92.8273 138.965 93.2936 136.769 95.4845 132.413C96.6881 129.818 98.1773 126.584 99.448 125.928C116.079 123.458 134.012 130.839 135.96 105.904C148.637 101.843 151.3 93.3655 150.375 78.0203ZM82.1581 47.1053C72.7033 36.274 82.7294 26.0966 92.2899 22.9075C94.4269 21.9517 96.1114 21.1998 96.9768 20.2973C103.942 13.0011 111.05 12.7826 116.458 13.4072C123.506 13.1439 132.138 25.083 136.692 19.0637C136.814 18.8697 136.979 18.7069 137.175 18.5882C137.371 18.4694 137.592 18.398 137.821 18.3797C144.598 22.7268 143.74 38.3353 136.74 42.6824C134.024 31.2189 127.493 37.8088 121.342 29.6355C117.737 24.8429 112.618 25.8782 107.6 28.9809C97.6786 35.1106 98.4266 25.5346 91.3458 31.2374C88.2246 33.7457 81.7744 39.2748 82.1581 47.1053ZM85.626 52.7093C81.4062 44.4658 86.4914 37.5378 92.591 32.7143C97.8716 28.2992 97.7558 37.0306 108.477 30.6986C113.505 27.7294 117.007 26.9304 120.001 31.0074C122.882 33.8584 125.372 36.3257 131.195 37.0406C132.136 37.1533 133.625 38.8456 134.655 42.2833C143.125 67.978 102.161 71.4907 95.0151 66.4734C90.688 64.3079 89.5532 62.4427 85.626 52.7093ZM90.5908 136.97C86.1602 138.099 60.6678 128.561 59.5244 126.763C56.9899 122.769 61.8188 121.137 66.498 119.399C68.7241 121.555 71.1379 123.509 73.7108 125.236C73.9288 126.671 73.67 128.137 72.9743 129.411C72.8851 129.556 72.836 129.723 72.8321 129.894C72.8282 130.065 72.8696 130.234 72.952 130.384C73.0345 130.533 73.1552 130.659 73.3017 130.747C73.4483 130.835 73.6155 130.883 73.7865 130.885C75.4563 130.471 75.5544 127.673 75.6895 126.545C76.6931 127.184 77.7739 127.831 78.9389 128.486C79.2546 129.539 78.6154 131.171 78.3375 131.697C78.2316 131.921 78.216 132.177 78.2939 132.412C78.3719 132.647 78.5373 132.843 78.756 132.959C78.9746 133.075 79.2295 133.103 79.4679 133.036C79.7062 132.969 79.9097 132.813 80.0359 132.6C80.525 131.655 80.8334 130.627 80.9453 129.569C84.6341 131.482 88.4701 133.097 92.4166 134.398C91.7264 135.706 91.0339 136.857 90.5908 136.97ZM124.04 122.295C117.662 124.619 104.277 122.122 98.564 124.225C96.5414 125.188 94.7588 129.422 93.2619 132.64C78.969 127.982 70.4313 120.51 68.1145 118.293C73.6282 107.763 72.0788 99.9245 85.355 94.5922C87.6942 96.9167 93.0951 99.5863 100.166 100.866C105.815 108.779 124.8 108.319 133.992 106.402C133.729 109.907 132.254 119.858 124.04 122.295ZM104.213 88.7998C102.674 88.7665 101.144 88.5467 99.658 88.1452C101.268 81.526 109.135 84.5793 109.422 81.9768C109.399 81.8271 108.992 78.3592 112.422 77.6744C115.279 77.1557 116.5 81.9398 116.537 82.0602C119.493 91.7034 118.185 101.813 115.153 105.318C107.014 104.483 102.148 101.858 100.402 97.3521C101.478 97.3143 104.571 98.5557 104.72 96.7052C104.724 96.5778 104.701 96.451 104.654 96.3325C104.607 96.2141 104.536 96.1065 104.446 96.0164C104.356 95.9263 104.248 95.8555 104.13 95.8084C104.012 95.7613 103.885 95.7389 103.757 95.7425C102.434 95.7106 101.116 95.5571 99.8201 95.2839C99.4298 93.5675 99.2681 91.807 99.3391 90.0482C100.266 90.0327 104.928 91.9211 105.169 89.7548C105.171 89.6286 105.148 89.5031 105.101 89.386C105.054 89.2688 104.984 89.1624 104.895 89.0732C104.805 88.9839 104.699 88.9137 104.582 88.8667C104.465 88.8197 104.339 88.797 104.213 88.7998ZM143.817 99.2551C139.951 104.204 128.42 106.296 117.414 105.498C120.378 100.767 120.995 91.2595 118.761 82.8423C121.513 83.0453 127.666 83.4969 130.322 83.6143C130.449 83.6225 130.576 83.6051 130.696 83.5631C130.816 83.5211 130.927 83.4553 131.021 83.3697C131.115 83.2841 131.191 83.1805 131.244 83.0649C131.297 82.9493 131.327 82.8243 131.33 82.6971C131.323 81.2458 128.374 81.9375 126.433 81.4557C126.005 79.5409 125.696 77.6016 125.506 75.6487C125.475 75.3998 125.347 75.1731 125.151 75.0167C124.955 74.8603 124.705 74.7866 124.456 74.8111C124.206 74.8356 123.976 74.9565 123.814 75.148C123.652 75.3396 123.571 75.5868 123.588 75.8371C123.603 75.9915 123.919 79.0942 124.416 81.3129C121.869 81.1323 119.338 80.9439 118.188 80.8613C116.593 74.0993 108.191 73.9341 107.476 81.1848C97.1636 81.3052 95.6899 90.7075 98.8489 98.6437C93.3275 97.4247 88.7318 95.1604 86.8288 93.3555C83.4968 90.1902 85.6098 76.8901 93.6224 67.9163C105.327 73.1065 126.884 70.8051 135.896 56.8218C142.041 60.2819 147.276 63.6154 148.45 78.1763C149.269 88.288 147.795 94.9898 143.815 99.2551H143.817Z" fill="#6C6753"/>
<path d="M17.8683 36.8831C17.287 37.5936 16.9588 38.4775 16.9357 39.3952C16.3181 44.4503 16.4462 61.243 17.8907 67.4067C18.4396 69.7536 20.3356 69.2726 19.8315 67.1365C18.7183 62.4049 17.5595 42.9456 19.2602 38.7714C20.7865 35.0179 36.53 23.2541 44.4585 19.4249C46.316 18.5294 46.2256 17.0023 44.2555 17.8901C33.4234 22.787 21.2304 32.9265 17.8683 36.8831Z" fill="#6C6753"/>
<path d="M24.8412 48.535C25.3678 48.4817 25.8449 48.3613 26.2255 47.2226C26.9697 45.0108 28.4141 39.1667 26.8793 39.3921C26.1127 39.5056 25.7985 39.6631 25.6233 40.686C25.2998 42.5666 24.9462 46.0568 24.4877 46.0947C23.931 46.1394 23.1753 43.2892 22.1408 43.9585C21.6969 44.2442 21.2831 44.7629 21.554 45.2215C23.2687 48.1883 24.3294 48.535 24.8412 48.535Z" fill="#6C6753"/>
<path d="M12.467 59.3438C10.7594 44.5707 11.7074 38.5382 12.6631 36.2292C14.1145 32.7235 23.9383 25.6002 34.995 18.4166C36.6201 17.3636 36.1839 15.4907 33.3552 17.1984C26.2913 21.5233 19.6146 26.4508 13.3996 31.926C9.57124 35.3637 8.51822 40.8473 10.7748 59.0126C11.0828 61.4653 12.6099 60.5845 12.467 59.3438Z" fill="#6C6753"/>
<path d="M104.318 51.6041C106.236 51.882 104.039 46.4663 108.989 48.753C109.096 48.8239 109.217 48.8714 109.344 48.8924C109.471 48.9133 109.6 48.9073 109.725 48.8746C109.849 48.842 109.965 48.7835 110.065 48.7029C110.165 48.6224 110.247 48.5216 110.305 48.4072C111.2 46.0911 106.499 45.8047 105.063 46.8801C103.55 48.0188 102.144 51.2875 104.318 51.6041Z" fill="#6C6753"/>
<path d="M89.5217 42.7202C90.868 42.5395 90.7947 40.4605 94.0124 40.5585C94.1396 40.5732 94.2684 40.5611 94.3905 40.5231C94.5127 40.485 94.6256 40.4218 94.7219 40.3376C94.8182 40.2533 94.8959 40.1498 94.9499 40.0338C95.0038 39.9178 95.033 39.7917 95.0353 39.6638C94.6895 36.0523 85.6555 42.1033 89.5217 42.7202Z" fill="#6C6753"/>
<path d="M101.542 51.6185C103.023 41.7499 88.5969 38.7638 87.4605 49.8815C87.3401 53.3185 89.0478 57.8617 92.433 56.3578C95.4338 54.5151 97.2318 53.6195 99.9547 53.1834C100.345 53.1101 100.705 52.9221 100.987 52.6433C101.27 52.3645 101.463 52.0077 101.542 51.6185ZM91.4248 54.7181C88.6417 53.8905 88.3484 46.9772 92.3798 45.1946C93.0904 47.7552 94.0088 50.2534 95.1258 52.6646C93.8546 53.2791 92.6189 53.9647 91.4248 54.7181Z" fill="#6C6753"/>
<path d="M37.1691 98.1643C36.7182 97.9991 35.6876 97.6077 35.131 97.4425C35.7023 96.9021 36.9436 95.6669 35.8976 95.3581C34.6948 94.9968 34.3713 95.6213 33.0018 96.8627C32.2877 96.6743 31.7612 96.5539 31.7087 96.5392C30.3468 96.2459 28.9294 97.8099 31.4902 98.4646C30.7081 99.2096 28.9557 101.105 31.0316 101.067C32.2352 101.045 32.7393 99.6906 33.6039 99.0135C34.6075 99.2451 35.4915 99.6381 36.3422 99.811C37.3798 99.8496 38.1696 98.4955 37.1691 98.1643Z" fill="#6C6753"/>
<path d="M43.9769 89.2737C44.5412 88.5889 41.901 88.5789 40.8889 88.1605C41.4988 87.4904 43.3415 85.873 42.2013 85.5573C41.8941 85.4903 41.576 85.4914 41.2693 85.5603C40.9626 85.6293 40.6746 85.7644 40.4257 85.9564C39.6436 86.7384 39.2978 87.0017 38.508 87.6942C37.4998 87.6262 35.7921 87.2194 34.9568 88.1149C34.4164 88.7016 35.8832 89.5593 36.5139 89.4613C35.7311 90.1831 32.8955 93.0643 35.3474 92.899C36.9686 92.7863 37.9275 90.4919 39.0708 89.7547C40.4342 89.8226 42.646 90.898 43.9769 89.2737Z" fill="#6C6753"/>
<path d="M20.7191 102.29C20.4682 102.285 20.2253 102.378 20.0424 102.55C19.8594 102.722 19.7508 102.958 19.7399 103.209C19.729 103.459 19.8167 103.704 19.9841 103.891C20.1515 104.078 20.3854 104.192 20.6357 104.209C24.3521 104.329 33.6641 106.134 35.8605 107.458C36.088 107.573 36.3519 107.593 36.5944 107.514C36.8369 107.435 37.0383 107.264 37.1543 107.037C37.6955 103.963 23.9453 102.676 20.7191 102.29Z" fill="#6C6753"/>
<path d="M46.3763 85.3918C47.2418 85.2636 51.7804 81.0214 50.1522 80.2965C48.6707 79.6264 47.4294 81.9285 45.443 84.0423C44.8647 84.6622 45.5487 85.5122 46.3763 85.3918Z" fill="#6C6753"/>
<path d="M49.1446 76.3657C43.5483 76.3734 42.0213 77.2759 18.8819 99.5105C16.5273 101.783 15.6842 103.875 16.4972 105.687C18.8194 110.859 32.0145 110.936 35.8135 110.884C43.5043 110.776 48.1657 104.754 56.6346 94.081C58.9962 90.5375 66.4283 83.9785 64.5477 80.0304C63.3233 77.4411 58.8549 76.3804 49.1446 76.3657ZM59.8477 86.987C52.5368 95.9006 43.3445 109.718 35.7549 108.958C30.3246 109.138 19.6284 108.138 18.2743 104.944C17.7401 103.672 19.0417 102.048 20.2229 100.905C43.7212 78.2849 44.6461 78.2788 49.1446 78.2934C61.1717 78.6292 66.7309 78.8554 59.8477 86.987Z" fill="#6C6753"/>
<path d="M36.5678 54.5031C35.5596 55.2628 33.0019 56.3312 33.574 58.1138C33.9724 59.3698 36.3648 57.2406 37.4858 56.1429C38.328 55.2211 37.7637 53.5891 36.5678 54.5031Z" fill="#6C6753"/>
<path d="M56.6363 83.9942C57.1404 83.3249 58.8257 81.6852 57.4183 81.5416C55.7562 81.3686 55.1617 83.1064 54.3303 83.7758C53.1869 83.7912 51.6599 83.091 50.8246 84.4528C50.3359 85.2572 52.1185 85.5884 52.8635 85.5807C50.4787 88.5298 48.4777 91.1021 46.0034 93.9755C44.5289 93.7648 42.4005 93.5239 41.1668 93.3286C40.9168 93.3027 40.666 93.3697 40.4621 93.5168C40.2583 93.6638 40.1156 93.8807 40.0613 94.1261C39.8127 94.9313 41.9141 95.1868 44.4764 95.7133C44.078 96.7941 38.9851 100.783 41.1367 100.926C43.235 101.069 42.7988 100.331 46.7631 96.0291C47.6109 96.2132 48.4852 96.2412 49.3431 96.1117C50.4185 95.9318 51.4646 95.3821 48.2376 94.3137C50.6748 91.441 52.6983 88.8154 55.1648 85.7915C56.4772 85.6564 59.0542 86.0401 59.6425 85.0473C60.2469 84.0159 57.6522 84.2336 56.6363 83.9942Z" fill="#6C6753"/>
<path d="M43.1492 35.1686C44.2177 27.9473 45.2862 27.413 43.8039 27.3381C41.8554 27.2401 41.9835 33.0695 41.4045 34.0399C40.9319 33.4608 40.5067 32.8445 40.133 32.1972C40.0007 31.9841 39.7905 31.831 39.5471 31.7706C39.3037 31.7102 39.0463 31.7471 38.8297 31.8735C38.6131 32 38.4544 32.206 38.3874 32.4477C38.3204 32.6893 38.3503 32.9476 38.4709 33.1676C40.5692 36.6655 42.7586 37.7556 43.1492 35.1686Z" fill="#6C6753"/>
<path d="M59.9757 65.3882C61.2472 65.47 61.4426 63.9515 60.1865 63.5354C57.554 62.6622 50.7912 63.1664 48.9785 67.4464C48.1208 69.4698 48.242 71.531 49.4903 72.5609C49.8818 73.1013 59.1983 75.3888 59.2763 73.2681C59.2899 73.0133 59.203 72.7634 59.0342 72.5721C58.8654 72.3808 58.6283 72.2634 58.3738 72.2452C55.1615 72.0421 51.7091 71.5156 51.2281 70.9366C49.1368 68.4222 51.8751 64.8794 59.9757 65.3882Z" fill="#6C6753"/>
<path d="M32.4006 35.2807C31.062 36.1754 29.0231 36.8903 29.7982 38.0259C30.5123 39.0712 32.325 37.1837 34.7475 35.95C35.8608 35.3865 34.9282 33.6039 32.4006 35.2807Z" fill="#6C6753"/>
<path d="M33.77 39.1015C32.7541 39.7963 30.3994 40.2827 30.9337 42.0351C31.1892 42.8774 32.28 42.4211 32.9872 41.9C33.5438 41.5017 34.2054 41.0879 34.6493 40.8092C36.9059 39.3871 35.3943 37.996 33.77 39.1015Z" fill="#6C6753"/>
</svg>
